# xmcd CD database file
#
# Track frame offsets:
#	150
#	20581
#	38764
#	51867
#	72127
#	94166
#	113908
#	133932
#	151102
#	169571
#	190475
#	205951
#	223917
#	241193
#	254692
#	273150
#	292402
#
# Disc length: 4083 seconds
#
# Revision: 1
# Processed by: cddbd v1.4PL0 Copyright (c) Steve Scherf et al.
# Submitted via: jetAudio 5
#
DISCID=060ff111
DTITLE=Garotos de Ouro - Pago Sul
DYEAR=1900
DGENRE=Country
TTITLE0=Não Chora China Veia
TTITLE1=chorando a Saudade
TTITLE2=Para Pedro
TTITLE3=Agüenta Coração
TTITLE4=Vaneira das Missões
TTITLE5=Coração Perdido
TTITLE6=Versos à Santa Catarina
TTITLE7=O branco do teu cabelo
TTITLE8=Churrasco
TTITLE9=Saudade de minha terra
TTITLE10=Meu pago sul
TTITLE11=Morena Rosa
TTITLE12=Fandango do Tio Bino
TTITLE13=Saco de Ouro
TTITLE14=Enchentes de Carinho
TTITLE15=Seguindo o Vento
TTITLE16=Parceiros na existência
EXTD=
EXTT0=
EXTT1=
EXTT2=
EXTT3=
EXTT4=
EXTT5=
EXTT6=
EXTT7=
EXTT8=
EXTT9=
EXTT10=
EXTT11=
EXTT12=
EXTT13=
EXTT14=
EXTT15=
EXTT16=
PLAYORDER=
